# xmcd CD database file
#
# Track frame offsets:
#	150
#	12360
#	33200
#	49952
#	81567
#	111090
#	122720
#	143587
#	162180
#	195967
#	215482
#
# Disc length: 3099 seconds
#
# Revision: 0
# Processed by: cddbd v1.5PL3 Copyright (c) Steve Scherf et al.
# Submitted via: CDex 1.51
#
DISCID=900c190b
DTITLE=増崎 孝司+矢堀 孝一 - 月
DYEAR=2003
DGENRE=Jazz
TTITLE0=Memories of Luna
TTITLE1=Story
TTITLE2=Moonglobe
TTITLE3=Umbrella
TTITLE4=Eclipse
TTITLE5=How Low The Moon
TTITLE6=It's Not All Truth
TTITLE7=I'm Fallin'
TTITLE8=続・待宵
TTITLE9=紫月
TTITLE10=(They Long To Be) Cloase To You
EXTD=YEAR: 2003
EXTT0=
EXTT1=
EXTT2=
EXTT3=
EXTT4=
EXTT5=
EXTT6=
EXTT7=
EXTT8=
EXTT9=
EXTT10=
PLAYORDER=
